<?xml version="1.0" encoding="UTF-8" standalone="no"?>
<svg
   version="1.1"
   width="600px"
   height="600px"
   xlink="http://www.w3.org/1999/xlink"
   style="overflow:hidden!important;"
   id="svg1"
   sodipodi:docname="favicon.svg"
   inkscape:version="1.3.2 (091e20e, 2023-11-25, custom)"
   inkscape:export-filename="favicon.png"
   inkscape:export-xdpi="5.1199999"
   inkscape:export-ydpi="5.1199999"
   xmlns:inkscape="http://www.inkscape.org/namespaces/inkscape"
   xmlns:sodipodi="http://sodipodi.sourceforge.net/DTD/sodipodi-0.dtd"
   xmlns="http://www.w3.org/2000/svg"
   xmlns:svg="http://www.w3.org/2000/svg">
  <sodipodi:namedview
     id="namedview1"
     pagecolor="#ffffff"
     bordercolor="#000000"
     borderopacity="0.25"
     inkscape:showpageshadow="2"
     inkscape:pageopacity="0.0"
     inkscape:pagecheckerboard="0"
     inkscape:deskcolor="#d1d1d1"
     inkscape:zoom="1.295"
     inkscape:cx="299.6139"
     inkscape:cy="300"
     inkscape:window-width="1920"
     inkscape:window-height="991"
     inkscape:window-x="-9"
     inkscape:window-y="-9"
     inkscape:window-maximized="1"
     inkscape:current-layer="svga-group-wrapper" />
  <g
     id="svga-group-wrapper"
     transform="scale(3 3)">
    <g
       id="svga-group-backs-single">
      <path
         stroke="none"
         opacity="1"
         stroke-width="none"
         fill="#fec6fc"
         d="M225 225H-25V-25h250V225z"
         id="SvgjsPath5340" />
      <path
         opacity="1"
         fill="url(#SvgjsRadialGradient5342)"
         d="M100 99.999l-10-150h20L100 99.999zM72.382-47.775L53.01-42.802 100 99.999 72.382-47.775zM36.5-36.265l-17.527 9.635L100 99.999 36.5-36.265zM4.607-16.192L-9.973-2.5 100 99.999 4.607-16.192zM-21.292 11.182l-10.717 16.887L100 99.999 -21.292 11.182zM-39.569 44.136l-6.18 19.022L100 99.999 -39.569 44.136zM-49.077 80.6l-1.256 19.961L100 99.999 -49.077 80.6zM-49.218 118.283l3.748 19.646L100 99.999 -49.218 118.283zM-39.983 154.817l8.516 18.098L100 99.999 -39.983 154.817zM-21.953 187.907l12.75 15.411L100 99.999 -21.953 187.907zM3.74 215.474l16.182 11.757L100 99.999 3.74 215.474zM35.481 235.785l18.597 7.363L100 99.999 35.481 235.785zM71.276 247.564l19.844 2.507L100 99.999 71.276 247.564zM108.877 250.071l19.844-2.507L100 99.999 108.877 250.071zM145.919 243.148l18.598-7.362L100 99.999 145.919 243.148zM180.076 227.231l16.183-11.756L100 99.999 180.076 227.231zM209.201 203.32l12.751-15.411L100 99.999 209.201 203.32zM231.465 172.917l8.519-18.098L100 99.999 231.465 172.917zM245.469 137.933l3.75-19.648L100 99.999 245.469 137.933zM250.332 100.564l-1.254-19.964L100 99.999 250.332 100.564zM245.749 63.161l-6.179-19.025L100 99.999 245.749 63.161zM232.009 28.072l-10.716-16.891L100 99.999 232.009 28.072zM209.974-2.498l-14.58-13.695L100 99.999 209.974-2.498zM181.028-26.627l-17.527-9.639L100 99.999 181.028-26.627zM146.992-42.8l-19.374-4.978L100 99.999 146.992-42.8z"
         id="SvgjsPath5341" />
    </g>
    <g
       id="svga-group-subwrapper">
      <g
         id="svga-group-hair-back">
        <path
           stroke="none"
           opacity="1"
           stroke-width="none"
           fill="#73625b"
           d="M100.5,100.5h-1v-1h1V100.5z"
           id="SvgjsPath5314" />
      </g>
      <g
         id="svga-group-humanbody-single">
        <path
           stroke="none"
           opacity="1"
           stroke-width="none"
           fill="#f0c7b1"
           d="M195.417 199.778c-2.196-4.746-8.195-11.779-14.86-13.722 -8.239-2.403-26.837-5.308-33.733-6.923 -5.528-1.296-16.662-11.294-20.564-14.65 -0.7-0.6-1.273-1.839-1.287-2.76 -0.139-10.864 4.195-39.724 4.195-39.724H100 70.833c0 0 4.334 28.859 4.193 39.724 -0.011 0.921-0.587 2.16-1.285 2.76 -3.902 3.356-15.036 13.354-20.564 14.65 -6.897 1.615-25.495 4.619-33.733 7.022 -6.667 1.942-12.664 8.876-14.86 13.622 -3.708 8.008-4.584 22.5-4.584 35h100 100C200 222.278 199.123 207.786 195.417 199.778z"
           id="SvgjsPath2893" />
        <path
           stroke="none"
           opacity="1"
           stroke-width="none"
           fill="#ffe4d6"
           d="M159.156 184.058c24.342 3.542 34.586 8.708 37.794 50.721H200c0-12.5-0.877-26.992-4.583-35 -2.196-4.746-8.195-11.779-14.86-13.722 -8.239-2.403-26.837-5.308-33.733-6.923 -5.528-1.296-18.242-12.069-21.643-16.35 3.36 4.704 12.791 15.605 21.054 18.46C150.188 182.61 153.48 183.232 159.156 184.058zM53.766 181.244c8.263-2.854 17.693-13.756 21.054-18.46 -3.4 4.28-16.114 15.054-21.643 16.35 -6.896 1.615-25.494 4.619-33.733 7.022 -6.665 1.942-12.664 8.876-14.86 13.622 -3.706 8.008-4.583 22.5-4.583 35h3.05c3.188-41.744 13.475-47.183 37.794-50.721C46.52 183.232 49.813 182.61 53.766 181.244z"
           id="SvgjsPath2894" />
        <path
           opacity="1"
           stroke-width="1.5"
           stroke="#c27b55"
           fill="none"
           d="M195.417 199.778c-2.196-4.746-8.195-11.779-14.86-13.722 -8.239-2.403-26.837-5.308-33.733-6.923 -5.528-1.296-16.662-11.294-20.564-14.65 -0.7-0.6-1.273-1.839-1.287-2.76 -0.139-10.864 4.195-39.724 4.195-39.724H100 70.833c0 0 4.334 28.859 4.193 39.724 -0.011 0.921-0.587 2.16-1.285 2.76 -3.902 3.356-15.036 13.354-20.564 14.65 -6.897 1.615-25.495 4.619-33.733 7.022 -6.667 1.942-12.664 8.876-14.86 13.622 -3.708 8.008-4.584 22.5-4.584 35h100 100C200 222.278 199.123 207.786 195.417 199.778z"
           id="SvgjsPath2896" />
      </g>
      <g
         id="svga-group-chinshadow-single">
        <path
           opacity="1"
           fill="url(#SvgjsLinearGradient5366)"
           d="M100.002 170.866c11.391 0 16.629-6.36 24.218-9.638 -0.008-7.932 2.039-23.933 3.282-32.907 -16.136-1.852-38.871-1.852-55.006 0.001 1.243 8.973 3.29 24.972 3.281 32.903C83.37 164.502 88.608 170.866 100.002 170.866z"
           id="SvgjsPath5365" />
      </g>
      <g
         id="svga-group-clothes-single">
        <path
           opacity="1"
           stroke-width="none"
           fill="#386e77"
           d="M111.806 235.888c-19.135 0-41.455-0.074-68.233-0.229l-23.679-0.128c-14.298-0.078-15.141-0.094-16.887-0.094l-4.899 0.007c-4.571-41.875 14.41-52.87 43.762-56.708 7.789-1.097 15.449-3.097 21.459-6.972 16.327 22.243 64.811 17.562 73.103-0.629 1.39 0.53 2.539 1.215 3.977 1.734 4.666 3.433 11.072 5.836 17.628 6.199 26.008 1.441 44.419 12.996 44.057 54.64 0.003 0.165 0.004 1.175-0.013 1.49 -12.513 0-17.206 0.121-27.034 0.262 -13.331 0.19-29.923 0.427-63.229 0.427C111.813 235.888 111.81 235.888 111.806 235.888z"
           id="SvgjsPath5310" />
        <path
           opacity="1"
           stroke-width="none"
           fill="#4d7e86"
           d="M201.055 234.64c-0.41-7.385-4.064-28.058-10.36-37.541 -12.482-18.805-42.26-12.206-49.132-19.693 -4.986 10.159-24.975 16.595-31.594 17.54 19.181-6.36 27.237-10.959 30.42-21.87 6.405 8.33 41.074 1.971 54.717 24.331C199.101 203.954 202.9 224.793 201.055 234.64zM55.811 177.628c1.357-0.315 2.034-1.249 3.381-1.614l-1.426-1.891c-9.049 7.052-42.909 2.645-54.519 24.036 -3.659 6.741-6.127 22.788-4.192 36.439 0.537-8.384 0.799-26.314 7.095-35.798 11.324-17.06 31.974-12.553 47.619-19.775 6.983 8.6 17.888 12.828 28.984 14.577C68.832 189.971 60.85 183.84 55.811 177.628z"
           id="SvgjsPath5311" />
        <path
           opacity="1"
           stroke-width="none"
           fill="#265e68"
           d="M135.31 173.244c-5.532 11.514-47.35 24.923-70.93 0.879 -1.466 0.622-5.852 2.112-5.852 2.112 17.176 23.386 67.511 23.534 80.909-0.114C139.378 176.098 136.672 173.936 135.31 173.244z"
           id="SvgjsPath5312" />
        <path
           opacity="1"
           stroke-width="none"
           fill="#0c4049"
           d="M136.38 171.002c-9.413 18.822-58.397 21.485-73.012 0.632 -5.337 1.578-10.469 4.941-15.636 5.782C16.812 182.021-6.046 184.335-2 235.552c9.94 0-6.611-0.065 45.571 0.215 123.59 0.71 119.562-0.461 158.606-0.461 0.029-0.14 0.015-1.452 0.021-1.596 2.096-56.436-30.852-53.104-53.12-56.995 -3.144-0.718-6.066-2.773-8.635-3.945C139.024 172.121 137.818 171.538 136.38 171.002zM63.014 172.265c12.974 23.392 64.219 18.699 74.113 0.101 1.2 0.504 1.507 0.704 2.898 1.197 -10.248 21.489-60.942 28.337-81.677 1.163C58.494 174.685 61.552 172.813 63.014 172.265zM-0.845 234.778c-2.421-26.431 1.797-48.043 32.78-53.345 10.276-1.896 16.557-1.962 25.384-5.794 16.763 27.405 72.098 23.158 83.598-1.305 1.652 1.409 4.228 3.03 7.405 3.785 18.098 4.299 54.838-0.894 52.898 56.658C147.163 234.075 102.355 232.433-0.845 234.778z"
           id="SvgjsPath5313" />
      </g>
      <g
         id="svga-group-head">
        <g
           id="svga-group-ears-left">
          <path
             opacity="1"
             stroke-width="1.5"
             stroke="#c27b55"
             fill="#f0c7b1"
             d="M47.001 83.231c-1.376-2.453-5.638-8.48-9.98-7.003 -2.749 0.935-3.293 3.993-3.735 6.693 -0.588 3.591 0.471 10.694 1.389 13.26 0.881 2.467 3.533 7.23 5.264 9.045 2.13 2.225 4.775 9.324 5.194 10.061 0.66 1.162 1.536 2.911 4.122 2.692 2.853-0.244 4.584-1.85 5.856-2.121C58.253 115.192 50.582 89.616 47.001 83.231z"
             id="SvgjsPath5372" />
          <path
             opacity="1"
             stroke-width="none"
             fill="#c27b55"
             d="M44.197 98.104c-0.132-0.581 0.007-1.56 0.142-2.504 0.124-0.861 0.24-1.675 0.169-2.251 -0.267-2.154-1.773-6.249-2.757-8.467 -1.132-2.554-2.963-5.77-5.262-6.599 -0.95-0.343-1.575 0.067-1.938 0.484 -0.266 0.305-0.325 0.665-0.238 0.707 0.086 0.042 0.285-0.254 0.572-0.535 0.235-0.229 0.579-0.426 1.051-0.385 -0.19 1.073-1.167 6.883-0.744 10.845 0.333 3.115 1.593 5.442 1.79 5.791 0.029 0.367 0.077 0.726 0.148 1.075 0.929 4.547 4.971 9.717 6.378 11.409 0.259 0.313 0.531 0.497 0.598 0.423 0.066-0.076-0.094-0.387-0.353-0.7 -1.388-1.679-5.391-6.831-6.289-11.218 -0.952-4.656 2.318-11.556 3.048-13.017 0.371 0.685 0.687 1.344 0.93 1.893 0.19 0.431 0.402 0.936 0.619 1.479 -0.429 0.762-3.434 6.32-2.338 10.767 0.406 1.641 2.235 3.755 3.447 4.333 0.667 0.32 0.919 0.797 1.209 1.349 0.336 0.64 0.718 1.365 1.828 1.892 0.225 0.108 0.429 0.151 0.61 0.151 0.313 0 0.551-0.135 0.725-0.293 0.018 0.28 0.017 0.64 0.009 0.97 -0.012 0.431 0.042 0.783 0.137 0.791 0.094 0.008 0.196-0.332 0.207-0.76 0.016-0.526 0.013-1.177-0.072-1.488 -0.248-0.917-1.008-1.953-1.813-3.048C45.221 100.116 44.403 99.003 44.197 98.104zM36.95 94.073c-2.177-7.139 0.656-13.3 1.144-14.28 0.85 0.822 1.6 1.919 2.21 2.995C39.86 83.646 37.041 89.271 36.95 94.073zM46.341 104.515c-1.004-0.475-1.339-1.115-1.666-1.733 -0.293-0.559-0.598-1.136-1.369-1.505 -0.168-0.081-0.352-0.203-0.542-0.343 -2.486-6.263 0.272-9.001 0.963-9.562 0.211 0.766 0.369 1.468 0.439 2.031 0.063 0.517-0.052 1.339-0.167 2.134 -0.142 0.985-0.286 2.004-0.137 2.664 0.226 0.982 1.069 2.131 1.884 3.242 0.723 0.986 1.466 2.003 1.721 2.832C47.359 104.439 47.017 104.836 46.341 104.515z"
             id="SvgjsPath5373" />
        </g>
        <g
           id="svga-group-ears-right">
          <path
             opacity="1"
             stroke-width="1.5"
             stroke="#c27b55"
             fill="#f0c7b1"
             d="M152.736 83.231c1.377-2.453 5.639-8.48 9.98-7.003 2.75 0.935 3.293 3.993 3.736 6.693 0.588 3.591-0.471 10.694-1.389 13.26 -0.881 2.467-3.533 7.23-5.266 9.045 -2.129 2.225-4.775 9.324-5.193 10.061 -0.658 1.162-1.535 2.911-4.121 2.692 -2.854-0.244-4.584-1.85-5.857-2.121C141.484 115.192 149.156 89.616 152.736 83.231z"
             id="SvgjsPath5374" />
          <path
             opacity="1"
             stroke-width="none"
             fill="#c27b55"
             d="M153.727 101.196c-0.805 1.096-1.564 2.131-1.813 3.048 -0.086 0.311-0.088 0.962-0.072 1.488 0.012 0.428 0.113 0.768 0.207 0.76s0.148-0.36 0.137-0.791c-0.008-0.331-0.008-0.69 0.01-0.97 0.174 0.158 0.412 0.293 0.725 0.293 0.182 0 0.385-0.043 0.609-0.151 1.109-0.526 1.492-1.252 1.828-1.892 0.289-0.552 0.543-1.028 1.209-1.349 1.213-0.578 3.041-2.692 3.447-4.333 1.096-4.447-1.908-10.005-2.338-10.767 0.217-0.544 0.43-1.049 0.619-1.479 0.244-0.549 0.559-1.208 0.93-1.893 0.73 1.46 4 8.361 3.049 13.017 -0.896 4.387-4.9 9.539-6.289 11.218 -0.258 0.313-0.418 0.624-0.352 0.7 0.066 0.074 0.338-0.109 0.598-0.423 1.406-1.692 5.449-6.862 6.379-11.409 0.07-0.35 0.117-0.708 0.146-1.075 0.197-0.349 1.459-2.676 1.791-5.791 0.422-3.961-0.555-9.772-0.744-10.845 0.473-0.042 0.814 0.156 1.051 0.385 0.287 0.281 0.486 0.577 0.572 0.535 0.086-0.042 0.027-0.402-0.238-0.707 -0.363-0.417-0.988-0.827-1.938-0.484 -2.299 0.83-4.131 4.045-5.262 6.599 -0.984 2.218-2.49 6.313-2.758 8.467 -0.072 0.576 0.045 1.39 0.17 2.251 0.135 0.945 0.273 1.924 0.141 2.504C155.336 99.003 154.518 100.116 153.727 101.196zM159.434 82.787c0.611-1.075 1.361-2.173 2.211-2.995 0.488 0.98 3.32 7.141 1.145 14.28C162.697 89.271 159.879 83.646 159.434 82.787zM152.27 104.275c0.254-0.829 0.998-1.846 1.721-2.832 0.816-1.111 1.658-2.26 1.885-3.242 0.148-0.66 0.004-1.679-0.137-2.664 -0.115-0.795-0.23-1.617-0.166-2.134 0.068-0.563 0.227-1.266 0.438-2.031 0.691 0.561 3.449 3.299 0.965 9.562 -0.191 0.14-0.375 0.263-0.543 0.343 -0.771 0.369-1.074 0.946-1.369 1.505 -0.326 0.618-0.662 1.258-1.666 1.733C152.721 104.836 152.379 104.439 152.27 104.275z"
             id="SvgjsPath5375" />
        </g>
        <g
           id="svga-group-faceshape-wrap">
          <g
             id="svga-group-faceshape-single">
            <path
               opacity="1"
               stroke-width="none"
               fill="#f0c7b1"
               d="M100.002 0.867C66.384 0.92 39.082 28.536 39.134 62.56c0.009 5.403 0.704 10.643 2.002 15.634h0.001c0.012 0.054 8.12 35.809 11.82 47.522 2.775 8.787 14.288 21.989 22.398 25.322 7.826 3.217 13.039 9.828 24.646 9.828s16.82-6.611 24.646-9.828c8.11-3.333 19.624-16.535 22.398-25.322 3.7-11.713 11.809-47.468 11.819-47.522h0.002c1.298-4.992 1.994-10.231 2.002-15.634C160.923 28.536 133.62 0.92 100.002 0.867z"
               id="SvgjsPath5362" />
            <path
               opacity="1"
               stroke-width="none"
               fill="#e8b9a0"
               d="M140.727 16.737c10.424 11.164 16.867 26.574 16.844 43.586 -0.009 5.403-0.666 10.643-1.894 15.634h-0.001c-0.011 0.054-7.681 35.809-11.18 47.522 -2.623 8.788-13.515 21.989-21.184 25.322 -7.403 3.216-12.333 9.829-23.31 9.829 -10.978 0-15.908-6.613-23.309-9.829 -7.671-3.333-18.56-16.534-21.184-25.322 -3.5-11.713-11.168-47.468-11.18-47.522h-0.001c-1.229-4.992-1.886-10.231-1.894-15.634 -0.025-17.011 6.418-32.419 16.84-43.583C46.893 28.034 39.106 44.38 39.134 62.56c0.009 5.403 0.704 10.643 2.002 15.634h0.001c0.012 0.054 8.12 35.809 11.82 47.522 2.775 8.787 14.288 21.989 22.398 25.322 7.826 3.217 13.039 9.828 24.646 9.828s16.82-6.611 24.646-9.828c8.11-3.333 19.624-16.535 22.398-25.322 3.7-11.713 11.809-47.468 11.819-47.522h0.002c1.298-4.992 1.994-10.231 2.002-15.634C160.898 44.378 153.111 28.031 140.727 16.737z"
               id="SvgjsPath5363" />
            <path
               opacity="1"
               stroke-width="1.5"
               stroke="#c27b55"
               fill="none"
               d="M100.002 0.867C66.384 0.92 39.082 28.536 39.134 62.56c0.009 5.403 0.704 10.643 2.002 15.634h0.001c0.012 0.054 8.12 35.809 11.82 47.522 2.775 8.787 14.288 21.989 22.398 25.322 7.826 3.217 13.039 9.828 24.646 9.828s16.82-6.611 24.646-9.828c8.11-3.333 19.624-16.535 22.398-25.322 3.7-11.713 11.809-47.468 11.819-47.522h0.002c1.298-4.992 1.994-10.231 2.002-15.634C160.923 28.536 133.62 0.92 100.002 0.867z"
               id="SvgjsPath5364" />
          </g>
        </g>
        <g
           transform="matrix(0.9499999,0,0,0.82987995,1.4291104,17.844383)"
           id="svga-group-mouth-single"
           style="display:inline;fill:#000000">
          <path
             opacity="1"
             fill="url(#SvgjsLinearGradient5358)"
             d="m 99.983,141.177 c -3.24,0 -4.753,-3.8 -4.753,-3.8 0,0 4.826,0.199 9.279,0.933 0,0 -1.677,2.867 -4.526,2.867 z"
             id="SvgjsPath5357"
             style="fill:#000000" />
          <path
             opacity="1"
             stroke-width="2.96744"
             fill="#c27b55"
             d="m 73.759691,135.17531 c -0.825921,-1.31234 3.3834,-13.41373 8.693211,-16.08614 6.711439,-3.50753 12.751959,0.1034 17.694208,1.64242 4.50381,1.40779 11.16211,0.19486 15.56186,2.30257 4.97989,2.38607 18.74155,13.05582 17.67206,15.11182 -0.52699,1.01408 -10.9894,-6.66511 -17.88241,-9.05914 -4.38425,-1.52709 -10.80784,-0.342 -15.22087,-1.64242 -4.565819,-1.34018 -9.897769,-4.81192 -16.093291,-3.20132 -5.619809,1.45949 -9.483704,12.42749 -10.424768,10.93221 z"
             id="SvgjsPath5361"
             style="fill:#000000" />
        </g>
        <g
           id="svga-group-eyes-left">
          <g
             id="svga-group-eyesback-left">
            <path
               opacity="1"
               fill="url(#SvgjsRadialGradient5220)"
               d="m 74.8,71.999 c 7.18,0 13,5.82 13,13 0,7.18 -5.82,13 -13,13 -7.18,0 -13,-5.82 -13,-13 0,-7.18 5.82,-13 13,-13 z"
               id="SvgjsPath5219"
               style="display:inline;fill:#000000" />
          </g>
          <g
             transform="translate(1 1)"
             id="svga-group-eyesiriswrapper-left">
            <g
               transform="translate(1.0000002000000001 0)"
               id="svga-group-eyesiriscontrol-left" />
          </g>
          <g
             id="svga-group-eyesfront-left">
            <path
               opacity="1"
               stroke-width="none"
               fill="#f0c7b1"
               d="M56.198 84.999c0 13.807 8.507 25 19 25s19-11.193 19-25 -8.507-25-19-25S56.198 71.192 56.198 84.999zM61.8 84.999c0-7.18 5.82-13 13-13s13 5.82 13 13c0 7.18-5.82 13-13 13S61.8 92.179 61.8 84.999z"
               id="SvgjsPath5244" />
            <path
               opacity="1"
               stroke-width="none"
               fill="#000000"
               d="M61.8 84.999c0 7.18 5.82 13 13 13s13-5.82 13-13c0-7.18-5.82-13-13-13S61.8 77.819 61.8 84.999zM62.8 84.999c0-6.627 5.373-12 12-12s12 5.373 12 12c0 6.628-5.373 12-12 12S62.8 91.627 62.8 84.999z"
               id="SvgjsPath5245" />
          </g>
        </g>
        <g
           id="svga-group-eyes-right">
          <g
             id="svga-group-eyesback-right">
            <path
               opacity="1"
               fill="url(#SvgjsRadialGradient5228)"
               d="M137.801 84.999c0 7.18-5.82 13-13 13s-13-5.82-13-13c0-7.18 5.82-13 13-13S137.801 77.819 137.801 84.999z"
               id="SvgjsPath5227"
               style="fill:#000000" />
          </g>
          <g
             transform="translate(-1 1)"
             id="svga-group-eyesiriswrapper-right">
            <g
               transform="translate(1.0000002000000001 0)"
               id="svga-group-eyesiriscontrol-right" />
          </g>
          <g
             id="svga-group-eyesfront-right">
            <path
               opacity="1"
               stroke-width="none"
               fill="#000000"
               d="m 124.801,71.999 c -7.18,0 -13,5.82 -13,13 0,7.18 5.82,13 13,13 7.18,0 13,-5.82 13,-13 0,-7.18 -5.821,-13 -13,-13 z m 0,25 c -6.627,0 -12,-5.372 -12,-12 0,-6.627 5.373,-12 12,-12 6.627,0 12,5.373 12,12 0,6.628 -5.373,12 -12,12 z"
               id="SvgjsPath5256"
               style="display:inline" />
          </g>
        </g>
        <g
           id="svga-group-beardwrap">
          <g
             id="svga-group-beard-single">
            <path
               opacity="1"
               stroke-width="none"
               fill="#2a232b"
               d="M100,18.13L100,18.13L100,18.13L100,18.13z"
               id="SvgjsPath3021" />
          </g>
        </g>
        <g
           transform="translate(0 2.0000001000000003)"
           id="svga-group-mustache-single" />
        <g
           id="svga-group-hair-front"
           style="display:inline;fill:#000000">
          <path
             stroke="none"
             opacity="1"
             stroke-width="none"
             fill="#73625b"
             d="M 49.154,100.989 C 41.04,86.852 35.757,72.474 32.071,54.535 28.571,36.838 40.297,17.958 52.672,7.906 67.818,-4.442 92.105,-9.52 105.745,-9.52 c 7.418,0 18.449,2.012 24.415,3.877 7.057,2.059 15.913,7.557 20.008,15.023 2.753,-1.839 4.011,-2.934 6.237,-5.747 -1.313,3.125 -1.996,4.076 -5.692,8.969 2.123,-0.538 4.48,-0.844 7.924,-2.589 -3.487,3.242 -3.551,3.677 -5.566,5.744 4.989,1.96 9.135,6.575 11.729,10.739 9.042,14.558 -0.657,41.766 -5.318,54.841 -5.015,14.046 -1.861,6.874 -6.486,16.838 -7.409,-16.445 -9.127,-25.471 -10.057,-30.354 -2.46,-12.795 -5.433,-17.035 -4.421,-28.938 -18.036,11.75 -48.595,17.209 -62.768,17.209 -7.201,0 -11.792,-1.1 -16.393,-2.147 -9.306,27.486 -4.284,21.064 -8.418,38.616 -0.441,1.871 -0.981,4.164 -1.785,8.428 z"
             id="SvgjsPath5316"
             style="fill:#000000" />
          <path
             stroke="none"
             opacity="1"
             stroke-width="none"
             fill="#452c22"
             d="m 165.139,26.285 c -2.537,-4.073 -7.433,-8.843 -11.859,-10.58 2.086,-2.138 3.192,-3.127 7.91,-7.52 -2.367,1.29 -4.958,2.856 -9.67,4.05 4.25,-5.623 4.339,-6.192 6.359,-11.15 -2.641,3.395 -4.018,5.412 -7.77,7.92 -4.119,-7.511 -13.391,-13.151 -19.83,-15.03 -5.879,-1.837 -17.485,-4.013 -25.17,-3.89 -13.995,0.112 -37.791,5.363 -52.69,17.51 -11.061,8.984 -24.482,28.094 -20.74,47.02 3.401,16.551 8.392,31.602 17.67,47.51 2.605,-14.126 2.609,-8.458 4.62,-27.54 0.412,-4.89 4.173,-15.797 5.65,-20.17 8.703,1.981 18.616,4.319 46.61,-2.29 10.261,-2.374 22.654,-6.484 31.819,-12.46 -0.873,10.335 1.949,15.81 4.271,27.06 0.891,4.487 2.267,13.943 10.67,32.41 5.618,-12.105 1.914,-3.98 5.89,-14.9 3.912,-11.244 16.124,-42.068 6.26,-57.95 z m -4.22,44.691 c -7.884,24.153 -4.516,16.809 -8.09,25.74 -0.696,-1.823 -5.499,-15.777 -7.37,-23.55 -5.207,-23.993 -5.769,-22.234 -6.229,-29.04 -0.608,-10.554 1.64,-16.228 2.27,-18.75 -2.706,7.294 -3.39,12.414 -3.39,13.54 -12.465,7.624 -40.495,13.263 -54.65,14.74 -14.557,1.521 -32.529,-1.898 -45.52,-6.56 6.718,3.623 17.987,6.342 20.93,7.14 -1.758,4.375 -5.733,14.022 -6.29,20.16 -1.704,16.68 -3.133,19.904 -3.75,25.66 C 39.013,81.822 33.625,56.6 33.14,50.446 31.32,38.83 41.335,19.538 53.87,9.386 68.92,-3.005 93.752,-7.681 105.049,-7.985 c 6.584,-0.383 18.69,1.435 24.79,3.13 6.272,1.554 16.384,7.239 20.271,14.59 0,0 0,0.01 0.01,0.01 2.345,-1.555 2.967,-1.997 4.92,-3.95 0,0.01 0,0.02 -0.01,0.03 -1.053,1.94 -3.255,4.893 -4.601,6.89 2.66,-0.462 5.147,-1.105 7.54,-2.24 -3.76,3.525 -3.145,3.008 -5.3,5.41 3.441,1.37 12.215,8.283 13.58,18.97 1.543,14.012 -2.278,26.532 -5.33,36.121 z"
             id="SvgjsPath5319"
             style="fill:#000000" />
        </g>
        <g
           id="svga-group-glasses-single">
          <path
             opacity="1"
             stroke-width="none"
             fill="#26120b"
             d="M100,18.13L100,18.13L100,18.13L100,18.13z"
             id="SvgjsPath4090" />
        </g>
      </g>
    </g>
    <rect
       style="display:none;"
       opacity="0.5"
       fill="#ecf0f1"
       y="185"
       x="0"
       height="15"
       width="200"
       id="SvgjsRect1036"
       inkscape:label="SvgjsRect1036" />
    <text
       y="185"
       x="100"
       fill="#000000"
       font-weight="400"
       text-anchor="middle"
       font-size="0.84em"
       style="font-size:0.84em;font-family:&quot;Roboto&quot;, &quot;Helvetica Neue&quot;, Helvetica, Arial, sans-serif;text-anchor:middle;font-weight:400;display:none;"
       font-family="&quot;Roboto&quot;, &quot;Helvetica Neue&quot;, Helvetica, Arial, sans-serif"
       id="SvgjsText1037"><tspan
         style="font-size:0.84em;font-family:&quot;Roboto&quot;, &quot;Helvetica Neue&quot;, Helvetica, Arial, sans-serif;text-anchor:middle;font-weight:400;"
         x="100"
         dy="1.2em"
         id="SvgjsTspan1038">Created on face.co</tspan></text>
  </g>
  <defs
     id="SvgjsDefs1001">
    <radialGradient
       class="svga-on-canvas-facehighlight-gradient-single-0"
       gradientUnits="userSpaceOnUse"
       r="41"
       cy="114"
       cx="100"
       id="SvgjsRadialGradient2886">
      <stop
         offset="0"
         stop-color="#ffe4d6"
         stop-opacity="0.5"
         id="SvgjsStop2887" />
      <stop
         offset="0.9"
         stop-color="#f0c7b1"
         stop-opacity="0"
         id="SvgjsStop2888" />
    </radialGradient>
    <radialGradient
       class="svga-on-canvas-facehighlight-gradient-single-1"
       gradientUnits="userSpaceOnUse"
       r="37"
       cy="54"
       cx="100"
       id="SvgjsRadialGradient2890">
      <stop
         offset="0"
         stop-color="#ffe4d6"
         stop-opacity="0.5"
         id="SvgjsStop2891" />
      <stop
         offset="0.9"
         stop-color="#f0c7b1"
         stop-opacity="0"
         id="SvgjsStop2892" />
    </radialGradient>
    <radialGradient
       class="svga-on-canvas-eyesfront-gradient-left-3"
       gradientUnits="userSpaceOnUse"
       gradientTransform="matrix(0.9998 0.0208 0.0166 -0.7998 -48.8769 148.1393)"
       r="17.684"
       fy="83.773"
       fx="136.189"
       cy="83.738"
       cx="123.755"
       id="SvgjsRadialGradient4953">
      <stop
         offset="0"
         stop-color="#e1ac8f"
         stop-opacity="1"
         id="SvgjsStop4954" />
      <stop
         offset="0.7"
         stop-color="#e1ac8f"
         stop-opacity="0.3"
         id="SvgjsStop4955" />
      <stop
         offset="1"
         stop-color="#f0c7b1"
         stop-opacity="0"
         id="SvgjsStop4956" />
    </radialGradient>
    <radialGradient
       class="svga-on-canvas-eyesfront-gradient-left-4"
       gradientUnits="userSpaceOnUse"
       gradientTransform="matrix(-0.8746 -0.4848 -0.3636 0.656 221.3328 94.1879)"
       r="25.824"
       cy="100.958"
       cx="122.636"
       id="SvgjsRadialGradient4958">
      <stop
         offset="0.94"
         stop-color="#000000"
         stop-opacity="0"
         id="SvgjsStop4959" />
      <stop
         offset="1"
         stop-color="#000000"
         stop-opacity="0.2"
         id="SvgjsStop4960" />
    </radialGradient>
    <radialGradient
       class="svga-on-canvas-eyesfront-gradient-right-3"
       gradientUnits="userSpaceOnUse"
       gradientTransform="matrix(-0.9998 0.0208 -0.0166 -0.7998 248.8769 148.1393)"
       r="17.685"
       fy="83.773"
       fx="136.19"
       cy="83.738"
       cx="123.755"
       id="SvgjsRadialGradient4974">
      <stop
         offset="0"
         stop-color="#e1ac8f"
         stop-opacity="1"
         id="SvgjsStop4975" />
      <stop
         offset="0.7"
         stop-color="#e1ac8f"
         stop-opacity="0.3"
         id="SvgjsStop4976" />
      <stop
         offset="1"
         stop-color="#f0c7b1"
         stop-opacity="0"
         id="SvgjsStop4977" />
    </radialGradient>
    <radialGradient
       class="svga-on-canvas-eyesfront-gradient-right-4"
       gradientUnits="userSpaceOnUse"
       gradientTransform="matrix(0.8746 -0.4848 0.3636 0.656 -21.3328 94.1879)"
       r="25.824"
       cy="100.958"
       cx="122.636"
       id="SvgjsRadialGradient4979">
      <stop
         offset="0.94"
         stop-color="#000000"
         stop-opacity="0"
         id="SvgjsStop4980" />
      <stop
         offset="1"
         stop-color="#000000"
         stop-opacity="0.2"
         id="SvgjsStop4981" />
    </radialGradient>
    <radialGradient
       class="svga-on-canvas-eyesback-gradient-left-0"
       gradientUnits="userSpaceOnUse"
       gradientTransform="matrix(-1 0 0 1 200 0)"
       r="13"
       cy="85"
       cx="125.2"
       id="SvgjsRadialGradient5220">
      <stop
         offset="0"
         stop-color="#ffffff"
         stop-opacity="1"
         id="SvgjsStop5221" />
      <stop
         offset="0.544"
         stop-color="#fdfefe"
         stop-opacity="1"
         id="SvgjsStop5222" />
      <stop
         offset="0.74"
         stop-color="#f6f8f9"
         stop-opacity="1"
         id="SvgjsStop5223" />
      <stop
         offset="0.879"
         stop-color="#eaeff2"
         stop-opacity="1"
         id="SvgjsStop5224" />
      <stop
         offset="0.992"
         stop-color="#d9e3e8"
         stop-opacity="1"
         id="SvgjsStop5225" />
      <stop
         offset="1"
         stop-color="#d8e2e7"
         stop-opacity="1"
         id="SvgjsStop5226" />
    </radialGradient>
    <radialGradient
       class="svga-on-canvas-eyesback-gradient-right-0"
       gradientUnits="userSpaceOnUse"
       r="13"
       cy="85"
       cx="124.801"
       id="SvgjsRadialGradient5228">
      <stop
         offset="0"
         stop-color="#ffffff"
         stop-opacity="1"
         id="SvgjsStop5229" />
      <stop
         offset="0.544"
         stop-color="#fdfefe"
         stop-opacity="1"
         id="SvgjsStop5230" />
      <stop
         offset="0.74"
         stop-color="#f6f8f9"
         stop-opacity="1"
         id="SvgjsStop5231" />
      <stop
         offset="0.879"
         stop-color="#eaeff2"
         stop-opacity="1"
         id="SvgjsStop5232" />
      <stop
         offset="0.992"
         stop-color="#d9e3e8"
         stop-opacity="1"
         id="SvgjsStop5233" />
      <stop
         offset="1"
         stop-color="#d8e2e7"
         stop-opacity="1"
         id="SvgjsStop5234" />
    </radialGradient>
    <radialGradient
       class="svga-on-canvas-eyesfront-gradient-left-0"
       gradientUnits="userSpaceOnUse"
       gradientTransform="matrix(-1 0 0 1 200 0)"
       r="13"
       cy="85"
       cx="125.2"
       id="SvgjsRadialGradient5236">
      <stop
         offset="0"
         stop-color="#ffffff"
         stop-opacity="1"
         id="SvgjsStop5237" />
      <stop
         offset="0.544"
         stop-color="#fdfefe"
         stop-opacity="1"
         id="SvgjsStop5238" />
      <stop
         offset="0.74"
         stop-color="#f6f8f9"
         stop-opacity="1"
         id="SvgjsStop5239" />
      <stop
         offset="0.879"
         stop-color="#eaeff2"
         stop-opacity="1"
         id="SvgjsStop5240" />
      <stop
         offset="0.992"
         stop-color="#d9e3e8"
         stop-opacity="1"
         id="SvgjsStop5241" />
      <stop
         offset="1"
         stop-color="#d8e2e7"
         stop-opacity="1"
         id="SvgjsStop5242" />
    </radialGradient>
    <radialGradient
       class="svga-on-canvas-eyesfront-gradient-right-0"
       gradientUnits="userSpaceOnUse"
       r="13"
       cy="85"
       cx="124.801"
       id="SvgjsRadialGradient5247">
      <stop
         offset="0"
         stop-color="#ffffff"
         stop-opacity="1"
         id="SvgjsStop5248" />
      <stop
         offset="0.544"
         stop-color="#fdfefe"
         stop-opacity="1"
         id="SvgjsStop5249" />
      <stop
         offset="0.74"
         stop-color="#f6f8f9"
         stop-opacity="1"
         id="SvgjsStop5250" />
      <stop
         offset="0.879"
         stop-color="#eaeff2"
         stop-opacity="1"
         id="SvgjsStop5251" />
      <stop
         offset="0.992"
         stop-color="#d9e3e8"
         stop-opacity="1"
         id="SvgjsStop5252" />
      <stop
         offset="1"
         stop-color="#d8e2e7"
         stop-opacity="1"
         id="SvgjsStop5253" />
    </radialGradient>
    <radialGradient
       class="svga-on-canvas-eyesiris-gradient-left-1"
       gradientUnits="userSpaceOnUse"
       gradientTransform="matrix(0.096 -0.0248 0.0245 0.0961 141.2814 119.9893)"
       r="59.751"
       cy="-521.042"
       cx="-568.659"
       id="SvgjsRadialGradient5259">
      <stop
         offset="0"
         stop-color="#ffffff"
         stop-opacity="1"
         id="SvgjsStop5260" />
      <stop
         offset="1"
         stop-color="#ffffff"
         stop-opacity="0"
         id="SvgjsStop5261" />
    </radialGradient>
    <radialGradient
       class="svga-on-canvas-eyesiris-gradient-left-2"
       gradientUnits="userSpaceOnUse"
       gradientTransform="matrix(0.0991 8.856319e-004 -0.0011 0.0991 131.1134 135.9855)"
       r="59.745"
       cy="-519.099"
       cx="-582.838"
       id="SvgjsRadialGradient5263">
      <stop
         offset="0"
         stop-color="#ffffff"
         stop-opacity="1"
         id="SvgjsStop5264" />
      <stop
         offset="1"
         stop-color="#ffffff"
         stop-opacity="0"
         id="SvgjsStop5265" />
    </radialGradient>
    <linearGradient
       class="svga-on-canvas-eyesiris-gradient-left-5"
       gradientUnits="userSpaceOnUse"
       gradientTransform="matrix(1 0 0 1 -52 0)"
       y2="87.152"
       x2="123.606"
       y1="88.268"
       x1="122.67"
       id="SvgjsLinearGradient5269">
      <stop
         offset="0"
         stop-color="#ffffff"
         stop-opacity="1"
         id="SvgjsStop5270" />
      <stop
         offset="1"
         stop-color="#ffffff"
         stop-opacity="0"
         id="SvgjsStop5271" />
    </linearGradient>
    <linearGradient
       class="svga-on-canvas-eyesiris-gradient-left-6"
       gradientUnits="userSpaceOnUse"
       gradientTransform="matrix(1 0 0 1 -52 0)"
       y2="83.189"
       x2="126.463"
       y1="82.296"
       x1="127.212"
       id="SvgjsLinearGradient5273">
      <stop
         offset="0"
         stop-color="#ffffff"
         stop-opacity="1"
         id="SvgjsStop5274" />
      <stop
         offset="1"
         stop-color="#ffffff"
         stop-opacity="0"
         id="SvgjsStop5275" />
    </linearGradient>
    <linearGradient
       class="svga-on-canvas-eyesiris-gradient-left-7"
       gradientUnits="userSpaceOnUse"
       gradientTransform="matrix(1 0 0 1 -52 0)"
       y2="81.879"
       x2="127.91"
       y1="79.822"
       x1="129.636"
       id="SvgjsLinearGradient5277">
      <stop
         offset="0"
         stop-color="#ffffff"
         stop-opacity="1"
         id="SvgjsStop5278" />
      <stop
         offset="1"
         stop-color="#ffffff"
         stop-opacity="0"
         id="SvgjsStop5279" />
    </linearGradient>
    <radialGradient
       class="svga-on-canvas-eyesiris-gradient-right-1"
       gradientUnits="userSpaceOnUse"
       gradientTransform="matrix(0.096 -0.0248 0.0245 0.0961 193.2804 119.9894)"
       r="59.752"
       cy="-521.042"
       cx="-568.654"
       id="SvgjsRadialGradient5282">
      <stop
         offset="0"
         stop-color="#ffffff"
         stop-opacity="1"
         id="SvgjsStop5283" />
      <stop
         offset="1"
         stop-color="#ffffff"
         stop-opacity="0"
         id="SvgjsStop5284" />
    </radialGradient>
    <radialGradient
       class="svga-on-canvas-eyesiris-gradient-right-2"
       gradientUnits="userSpaceOnUse"
       gradientTransform="matrix(0.0991 8.856319e-004 -0.0011 0.0991 183.1126 135.9856)"
       r="59.747"
       cy="-519.102"
       cx="-582.833"
       id="SvgjsRadialGradient5286">
      <stop
         offset="0"
         stop-color="#ffffff"
         stop-opacity="1"
         id="SvgjsStop5287" />
      <stop
         offset="1"
         stop-color="#ffffff"
         stop-opacity="0"
         id="SvgjsStop5288" />
    </radialGradient>
    <linearGradient
       class="svga-on-canvas-eyesiris-gradient-right-5"
       gradientUnits="userSpaceOnUse"
       y2="87.152"
       x2="123.606"
       y1="88.268"
       x1="122.67"
       id="SvgjsLinearGradient5292">
      <stop
         offset="0"
         stop-color="#ffffff"
         stop-opacity="1"
         id="SvgjsStop5293" />
      <stop
         offset="1"
         stop-color="#ffffff"
         stop-opacity="0"
         id="SvgjsStop5294" />
    </linearGradient>
    <linearGradient
       class="svga-on-canvas-eyesiris-gradient-right-6"
       gradientUnits="userSpaceOnUse"
       y2="83.189"
       x2="126.463"
       y1="82.296"
       x1="127.212"
       id="SvgjsLinearGradient5296">
      <stop
         offset="0"
         stop-color="#ffffff"
         stop-opacity="1"
         id="SvgjsStop5297" />
      <stop
         offset="1"
         stop-color="#ffffff"
         stop-opacity="0"
         id="SvgjsStop5298" />
    </linearGradient>
    <linearGradient
       class="svga-on-canvas-eyesiris-gradient-right-7"
       gradientUnits="userSpaceOnUse"
       y2="81.879"
       x2="127.91"
       y1="79.822"
       x1="129.636"
       id="SvgjsLinearGradient5300">
      <stop
         offset="0"
         stop-color="#ffffff"
         stop-opacity="1"
         id="SvgjsStop5301" />
      <stop
         offset="1"
         stop-color="#ffffff"
         stop-opacity="0"
         id="SvgjsStop5302" />
    </linearGradient>
    <radialGradient
       class="svga-on-canvas-backs-gradient-single-1"
       gradientUnits="userSpaceOnUse"
       r="150"
       cy="100"
       cx="100"
       id="SvgjsRadialGradient5342">
      <stop
         offset="0"
         stop-color="#fec6fc"
         stop-opacity="0"
         id="SvgjsStop5343" />
      <stop
         offset="0.2"
         stop-color="#efa2ec"
         stop-opacity="1"
         id="SvgjsStop5344" />
      <stop
         offset="1"
         stop-color="#efa2ec"
         stop-opacity="0"
         id="SvgjsStop5345" />
    </radialGradient>
    <linearGradient
       class="svga-on-canvas-mouth-gradient-single-0"
       gradientUnits="userSpaceOnUse"
       y2="137"
       x2="100"
       y1="141"
       x1="100"
       id="SvgjsLinearGradient5358">
      <stop
         offset="0.1"
         stop-color="#e8b9a0"
         stop-opacity="1"
         id="SvgjsStop5359" />
      <stop
         offset="1"
         stop-color="#e1ac8f"
         stop-opacity="1"
         id="SvgjsStop5360" />
    </linearGradient>
    <linearGradient
       class="svga-on-canvas-chinshadow-gradient-single-0"
       gradientUnits="userSpaceOnUse"
       y2="127"
       x2="100"
       y1="171"
       x1="100"
       id="SvgjsLinearGradient5366">
      <stop
         offset="0"
         stop-color="#e1ac8f"
         stop-opacity="0.8"
         id="SvgjsStop5367" />
      <stop
         offset="0.7"
         stop-color="#c27b55"
         stop-opacity="1"
         id="SvgjsStop5368" />
    </linearGradient>
  </defs>
</svg>
